<?xml version="1.0" encoding="UTF-8"?><svg id="Layer_1" xmlns="http://www.w3.org/2000/svg" viewBox="0 0 86.81 25.6"><defs><style>.cls-1{fill:#231f20;}</style></defs><path class="cls-1" d="M15.41,20.66c.29,.91,.55,1.62,.77,2.12s.51,.85,.85,1.04c.14,.07,.3,.12,.47,.14,.17,.02,.32,.05,.47,.07s.27,.07,.38,.13,.16,.16,.16,.31c0,.31-.24,.47-.72,.47-.19,0-.56-.04-1.12-.11-.55-.07-1.31-.11-2.27-.11-.55,0-1.06,.03-1.51,.09-.46,.06-.89,.09-1.3,.09-.26,0-.46-.02-.58-.07-.12-.05-.18-.17-.18-.36,0-.36,.38-.56,1.15-.61,.48-.05,.82-.1,1.03-.16,.2-.06,.31-.28,.31-.67,0-.07-.02-.26-.05-.56-.04-.3-.11-.65-.23-1.06l-1.4-4.5c-.07-.29-.23-.43-.47-.43H5.72c-.12,0-.23,.04-.32,.13-.1,.08-.17,.21-.22,.38l-1.15,4.32c-.17,.6-.25,1.09-.25,1.48,0,.36,.09,.61,.27,.74,.18,.13,.44,.22,.77,.27,.53,.07,.92,.16,1.17,.25,.25,.1,.38,.28,.38,.54,0,.29-.22,.43-.65,.43-.26,0-.63-.05-1.1-.14-.47-.1-1.03-.14-1.67-.14-.48,0-.92,.04-1.31,.13-.4,.08-.75,.13-1.06,.13-.38,0-.58-.16-.58-.47,0-.22,.07-.35,.2-.4,.13-.05,.3-.09,.5-.13,.2-.04,.43-.08,.67-.14,.24-.06,.47-.21,.68-.45,.19-.24,.38-.63,.56-1.17s.4-1.24,.67-2.11L8.57,2.45c.1-.26,.17-.47,.22-.63,.05-.16,.17-.23,.36-.23,.26,0,.44,.19,.52,.56,.08,.37,.22,.87,.41,1.49l5.33,17.03ZM8.32,6.98c-.07,0-.14,.1-.22,.29l-2.2,7.52c-.05,.14-.07,.24-.07,.29,0,.17,.11,.25,.32,.25h4.43c.26,0,.4-.12,.4-.36,0-.12-.01-.2-.04-.25l-2.41-7.42c-.07-.22-.14-.32-.22-.32Z"/><path class="cls-1" d="M22.83,10.98c0,.26,.05,.4,.14,.4s.24-.17,.45-.52c.2-.35,.53-.73,.99-1.13,.48-.43,.96-.76,1.45-.97,.49-.22,1.02-.32,1.6-.32,1.34,0,2.42,.49,3.23,1.47,.81,.98,1.22,2.31,1.22,3.99v8.8c0,.5,.1,.84,.29,1.02,.19,.18,.41,.3,.65,.36,.24,.06,.46,.11,.65,.14,.19,.04,.29,.15,.29,.34,0,.17-.04,.27-.13,.31-.08,.04-.22,.05-.41,.05-.17,0-.44-.02-.83-.07-.38-.05-.88-.07-1.49-.07-.5,0-.93,.02-1.3,.07-.37,.05-.69,.07-.95,.07-.22,0-.37-.01-.47-.04-.1-.02-.14-.13-.14-.32s.1-.31,.29-.34c.19-.04,.41-.09,.65-.16,.24-.07,.46-.2,.65-.38,.19-.18,.29-.51,.29-.99v-7.22c0-1.87-.24-3.27-.72-4.2-.48-.93-1.35-1.4-2.6-1.4s-2.24,.52-2.82,1.56c-.58,1.04-.87,2.6-.87,4.69v6.57c0,.5,.1,.84,.29,1.02,.19,.18,.41,.3,.65,.36,.24,.06,.46,.11,.65,.14,.19,.04,.29,.15,.29,.34,0,.17-.04,.27-.13,.3-.08,.04-.22,.05-.41,.05-.17,0-.44-.02-.83-.07-.38-.05-.88-.07-1.49-.07-.45,0-.86,.02-1.24,.07-.38,.05-.74,.07-1.08,.07-.19,0-.33-.02-.41-.05-.08-.04-.13-.14-.13-.31,0-.19,.1-.31,.29-.34,.19-.04,.41-.09,.65-.16,.24-.07,.46-.2,.65-.38,.19-.18,.29-.51,.29-.99V12.27c0-.36-.08-.59-.23-.7-.16-.11-.32-.17-.5-.2-.18-.02-.34-.05-.49-.07-.14-.02-.22-.11-.22-.25,0-.22,.13-.36,.38-.45,.25-.08,.51-.22,.77-.41,.62-.43,1.08-.83,1.36-1.2,.29-.37,.49-.56,.61-.56s.19,.08,.2,.23c.01,.16,.02,.37,.02,.63v1.69Z"/><path class="cls-1" d="M47.12,21.53c0,.72,.03,1.25,.09,1.58,.06,.34,.23,.5,.52,.5,.1,0,.2-.04,.32-.13,.12-.08,.23-.18,.34-.29s.22-.2,.32-.29c.11-.08,.21-.13,.31-.13,.07,0,.11,.17,.11,.5,0,.26-.05,.44-.14,.54s-.3,.2-.61,.32c-.77,.34-1.35,.63-1.75,.88-.39,.25-.66,.38-.81,.38-.24,0-.4-.31-.47-.94l-.14-1.66h-.22c-.79,.91-1.57,1.6-2.35,2.07-.78,.47-1.59,.7-2.42,.7-.79,0-1.54-.19-2.24-.58-.71-.38-1.32-.94-1.83-1.67-.51-.73-.92-1.62-1.22-2.66s-.45-2.21-.45-3.51c0-1.37,.17-2.59,.52-3.67,.35-1.08,.82-2,1.42-2.75,.6-.76,1.31-1.33,2.14-1.73s1.71-.59,2.65-.59c.6,0,1.12,.05,1.55,.15,.43,.1,.79,.22,1.08,.36,.29,.14,.51,.26,.67,.37,.16,.11,.27,.16,.34,.16,.19,0,.29-.13,.29-.4V3.62c0-1.08-.37-1.61-1.12-1.61-.02,0-.06,0-.11,.02-.05,.01-.13,.02-.25,.02-.05,0-.11-.03-.18-.09-.07-.06-.11-.14-.11-.23,0-.24,.14-.39,.43-.45,.29-.06,.61-.15,.97-.27,.62-.22,1.09-.44,1.42-.66,.33-.23,.55-.34,.67-.34,.16,0,.25,.26,.25,.79V21.53Zm-2.27-10.63c-.19-.37-.45-.69-.77-.96-.32-.26-.7-.48-1.13-.63s-.9-.23-1.4-.23c-1.44,0-2.62,.67-3.53,2s-1.37,3.24-1.37,5.72,.43,4.27,1.28,5.58c.85,1.31,1.94,1.97,3.26,1.97,.5,0,.99-.11,1.46-.32,.47-.22,.89-.51,1.26-.88,.37-.37,.67-.81,.9-1.32,.23-.51,.34-1.06,.34-1.66V12.1c0-.43-.1-.84-.29-1.21Z"/><path class="cls-1" d="M54.03,11.34c0,.17,.05,.25,.14,.25,.07,0,.16-.06,.25-.18l.65-.94c1.01-1.37,2.08-2.05,3.2-2.05,.6,0,1.07,.16,1.4,.49,.34,.32,.5,.73,.5,1.21s-.13,.87-.38,1.17c-.25,.3-.53,.45-.85,.45-.24,0-.45-.07-.63-.22-.18-.14-.36-.31-.54-.49s-.37-.34-.56-.49c-.19-.14-.43-.22-.72-.22-.26,0-.53,.11-.81,.32-.28,.21-.53,.56-.77,1.02s-.43,1.06-.58,1.77c-.14,.72-.22,1.58-.22,2.58v5.91c0,.62,.05,1.06,.14,1.33,.1,.26,.32,.47,.68,.61,.31,.12,.59,.19,.83,.22,.24,.02,.44,.04,.61,.05,.17,.01,.29,.04,.38,.07,.08,.04,.13,.14,.13,.3,0,.26-.19,.39-.58,.39-.31,0-.74-.03-1.28-.09-.54-.06-1.18-.09-1.91-.09-.47,0-.9,.02-1.3,.07s-.74,.07-1.02,.07c-.19,0-.33-.02-.41-.05-.08-.04-.13-.14-.13-.31,0-.24,.08-.36,.25-.36,.19,0,.49-.07,.9-.21,.31-.12,.51-.33,.59-.63s.13-.76,.13-1.38V12.44c0-.43-.08-.72-.23-.86-.16-.14-.32-.23-.5-.25-.18-.02-.34-.04-.49-.04s-.22-.08-.22-.25c0-.19,.13-.34,.38-.45,.25-.11,.53-.27,.85-.48,.54-.38,.96-.76,1.24-1.13,.28-.37,.49-.56,.64-.56,.12,0,.18,.08,.19,.23,.01,.16,.02,.37,.02,.63v2.05Z"/><path class="cls-1" d="M63.23,14.8c-.31,0-.5,.1-.58,.31-.07,.2-.11,.61-.11,1.21,0,1.2,.14,2.27,.41,3.2,.28,.94,.66,1.73,1.15,2.38,.49,.65,1.08,1.15,1.76,1.49,.68,.35,1.43,.52,2.25,.52,.74,0,1.37-.12,1.89-.36,.52-.24,.94-.5,1.28-.79,.34-.29,.6-.55,.79-.79,.19-.24,.32-.36,.4-.36,.17,0,.25,.1,.25,.29,0,.26-.13,.61-.4,1.03-.26,.42-.64,.83-1.13,1.22-.49,.4-1.09,.74-1.8,1.03-.71,.29-1.49,.43-2.36,.43-.98,0-1.89-.2-2.72-.61-.83-.41-1.54-.98-2.14-1.73-.6-.74-1.06-1.64-1.39-2.7-.32-1.06-.49-2.23-.49-3.53s.19-2.51,.58-3.58c.38-1.07,.9-1.97,1.55-2.72,.65-.74,1.4-1.31,2.27-1.71,.86-.4,1.78-.59,2.74-.59,.84,0,1.6,.16,2.27,.47,.67,.31,1.24,.73,1.71,1.24s.83,1.12,1.08,1.8,.38,1.39,.38,2.11c0,.26-.08,.46-.23,.58-.16,.12-.44,.18-.85,.18h-8.57Zm6.26-1.14c.7-.18,1.04-.62,1.04-1.32,0-.39-.08-.77-.25-1.16-.17-.39-.4-.74-.7-1.05-.3-.31-.65-.57-1.06-.76-.41-.19-.84-.29-1.3-.29-.58,0-1.13,.15-1.66,.44-.53,.29-.99,.65-1.39,1.09-.4,.44-.71,.92-.95,1.45-.24,.53-.36,1.05-.36,1.56,0,.07,.04,.15,.11,.22,.07,.07,.17,.11,.29,.11h2.95c1.49,0,2.58-.09,3.28-.27Zm-3.89-7.18h-.72l3.42-5.4c.19-.29,.36-.51,.5-.67,.14-.16,.31-.23,.5-.23s.37,.09,.52,.27c.16,.18,.23,.4,.23,.67,0,.38-.22,.79-.65,1.22l-3.82,4.14Z"/><path class="cls-1" d="M77.16,14.8c-.31,0-.5,.1-.58,.31-.07,.2-.11,.61-.11,1.21,0,1.2,.14,2.27,.41,3.2,.28,.94,.66,1.73,1.15,2.38,.49,.65,1.08,1.15,1.76,1.49,.68,.35,1.43,.52,2.25,.52,.74,0,1.37-.12,1.89-.36,.52-.24,.94-.5,1.28-.79,.34-.29,.6-.55,.79-.79,.19-.24,.32-.36,.4-.36,.17,0,.25,.1,.25,.29,0,.26-.13,.61-.4,1.03-.26,.42-.64,.83-1.13,1.22-.49,.4-1.09,.74-1.8,1.03-.71,.29-1.49,.43-2.36,.43-.98,0-1.89-.2-2.72-.61-.83-.41-1.54-.98-2.14-1.73-.6-.74-1.06-1.64-1.39-2.7-.32-1.06-.49-2.23-.49-3.53s.19-2.51,.58-3.58c.38-1.07,.9-1.97,1.55-2.72,.65-.74,1.4-1.31,2.27-1.71,.86-.4,1.78-.59,2.74-.59,.84,0,1.6,.16,2.27,.47,.67,.31,1.24,.73,1.71,1.24s.83,1.12,1.08,1.8,.38,1.39,.38,2.11c0,.26-.08,.46-.23,.58-.16,.12-.44,.18-.85,.18h-8.57Zm6.26-1.14c.7-.18,1.04-.62,1.04-1.32,0-.39-.08-.77-.25-1.16-.17-.39-.4-.74-.7-1.05-.3-.31-.65-.57-1.06-.76-.41-.19-.84-.29-1.3-.29-.58,0-1.13,.15-1.66,.44-.53,.29-.99,.65-1.39,1.09-.4,.44-.71,.92-.95,1.45-.24,.53-.36,1.05-.36,1.56,0,.07,.04,.15,.11,.22,.07,.07,.17,.11,.29,.11h2.95c1.49,0,2.58-.09,3.28-.27Z"/></svg>