<?xml version="1.0" encoding="UTF-8"?><svg id="Layer_1" xmlns="http://www.w3.org/2000/svg" viewBox="0 0 154.18 51.74"><defs><style>.cls-1{fill:#231f20;}</style></defs><path class="cls-1" d="M0,.52H9.88l8.97,26.85-.07-26.85h9.23V50.9h-9.62L9.23,24.25l.06,26.65H0V.52Z"/><path class="cls-1" d="M30.22,36.73V.52h9.82V36.92c0,3.97,2.02,6.44,5.13,6.44s4.88-2.47,4.88-6.44V.52h9.82V36.73c0,9.04-5.98,15.02-14.95,15.02s-14.69-5.98-14.69-15.02Z"/><path class="cls-1" d="M62.08,.52h10.14c13.46,0,21.52,9.62,21.52,25.22s-8.06,25.16-21.52,25.16h-10.14V.52Zm11.18,41.86c6.83,0,10.59-6.37,10.59-16.64s-3.77-16.71-10.59-16.71h-1.63V42.38h1.63Z"/><path class="cls-1" d="M95.35,26.33c0-16.9,6.24-26.33,17.42-26.33,9.56,0,15.15,7.22,15.67,19.57h-9.75c-.58-6.89-2.6-11.12-5.98-11.12-4.81,0-7.54,6.44-7.54,17.88s2.73,16.97,7.6,16.97c3.9,0,6.31-4.55,6.44-10.14h-7.41v-8.91h16.51c-.2,9.17-.2,19.37-.07,26.65h-6.17c-.13-1.23-.33-2.54-.52-3.83-2.21,2.99-5.26,4.68-8.91,4.68-11.12,0-17.29-9.1-17.29-25.42Z"/><path class="cls-1" d="M154.18,9.04h-13.78v12.42l13.07-.06v8.52h-13.07v12.48h13.78v8.52h-23.47V.52h23.47V9.04Z"/></svg>