<?xml version="1.0" encoding="UTF-8"?><svg id="Layer_1" xmlns="http://www.w3.org/2000/svg" viewBox="0 0 264.74 273"><defs><style>.cls-1{fill:#292a74;}.cls-2{fill:#2f308f;}</style></defs><path class="cls-2" d="M132.41,272.98c-10.23,.46-19.89-6.89-22.33-17.21-.43-1.8-1.09-2.64-2.83-3.32-9.43-3.72-15.16-11.9-15.21-21.39-.06-9.74,5.47-17.86,15.15-21.81,1.75-.71,2.1-1.54,2.09-3.2-.03-52.35-.04,5.3,.02-47.05,0-2.14-.62-2.68-2.71-2.67-13.71,.09-27.42,.11-41.13-.02-2.18-.02-2.51,.97-3.03,2.63-3.24,10.47-12.37,17.14-22.86,16.84-10.3-.29-18.84-7.27-21.66-17.82-.43-1.6-1.19-2.47-2.75-3.12C5.21,150.73-.28,142.47,.01,132.3c.27-9.5,6.49-17.62,16.23-21,1.65-.57,2.47-1.52,3.24-3.05,4.05-8.11,10.67-12.75,19.75-13.12,9.54-.39,16.82,3.85,21.33,12.29,1.12,2.1,2.32,2.72,4.58,2.7,13.59-.1,27.17-.15,40.76,.03,2.89,.04,3.45-.81,3.42-3.52-.14-13.71-.12-27.42-.01-41.13,.02-2.27-.47-3.38-2.79-4.29-9.04-3.55-14.63-12.27-14.47-21.91,.15-9.25,6.18-17.78,15.2-21.05,1.98-.72,2.92-1.69,3.69-3.62,2.55-6.44,7.15-10.93,13.7-13.41,.85-.32,2.08-.02,2.55-1.2h5.24c1,1.09,1.13,2.46,1.18,3.84,.05,1.25,.04,2.49,.04,3.74,0,122.62,0,135.23-.03,257.85,0,2.55,.68,5.27-1.19,7.56Z"/><path class="cls-1" d="M132.41,272.98c0-127.66,0-145.32,0-272.98h4.49c5.18,2.03,10.88,3.87,13.54,9.01,3.02,5.83,7.41,9.36,12.89,12.71,7.08,4.34,9.93,11.76,9.2,20.02-.8,9.03-5.58,15.67-13.98,19.2-2.58,1.08-3.16,2.36-3.14,4.88,.11,13.72,.12,27.44-.01,41.15-.03,2.63,.69,3.31,3.3,3.29,13.72-.13,27.43-.1,41.15-.03,2.07,.01,3.26-.45,4.32-2.5,4.34-8.4,11.51-12.73,20.89-12.54,9.24,.18,16.09,4.81,20.19,13.12,.87,1.75,1.91,2.59,3.66,3.18,9.3,3.13,15.42,11.34,15.81,21.02,.38,9.42-5.4,18.37-14.45,21.98-2.08,.83-3.02,1.84-3.58,4.08-2.43,9.78-11.4,16.73-21.59,17.08-9.94,.34-19.34-6.28-22.32-16.05-.77-2.54-1.76-3.41-4.49-3.38-13.09,.17-26.19,.14-39.28,.02-2.54-.02-3.63,.27-3.62,3.32,.11,52,.1-6,.03,46,0,2.2,.66,3.16,2.72,3.99,9.01,3.58,14.68,12.16,14.55,21.54-.13,9.31-5.85,17.58-14.7,21.07-1.84,.73-2.87,1.52-3.41,3.71-2.57,10.32-11.81,17.27-22.17,17.08Z"/></svg>